<?xml version="1.0" encoding="utf-8"?>
<!-- Generator: Adobe Illustrator 21.0.0, SVG Export Plug-In . SVG Version: 6.00 Build 0)  -->
<svg version="1.1" id="Layer_1" xmlns="http://www.w3.org/2000/svg" xmlns:xlink="http://www.w3.org/1999/xlink" x="0px" y="0px"
	 viewBox="0 0 17 17" style="enable-background:new 0 0 17 17;" xml:space="preserve">
<style type="text/css">
	.st0{fill:#CEC2C6;}
	.st1{fill:#FFFFFF;}
</style>
<title>number-email</title>
<desc>Created with Sketch.</desc>
<g id="_x32_Movers_x5F_Mobile">
	<g id="Number_Verification" transform="translate(-58.000000, -470.000000)">
		<g id="Group-5" transform="translate(58.000000, 427.000000)">
			<g id="Group-4" transform="translate(0.000000, 43.000000)">
				<g id="number-email">
					<circle id="Oval-3-Copy" class="st0" cx="8.5" cy="8.5" r="8.5"/>
					<path id="_xF0E0_" class="st1" d="M13,7.3v4c0,0.4-0.4,0.8-0.8,0.8H4.8c-0.4,0-0.8-0.4-0.8-0.8v-4c0.2,0.2,0.3,0.3,0.5,0.4
						C5.3,8.3,6.2,8.9,7,9.4c0.4,0.3,0.9,0.7,1.5,0.7h0c0.5,0,1.1-0.4,1.5-0.7c0.8-0.6,1.7-1.2,2.5-1.7C12.7,7.6,12.8,7.4,13,7.3z
						 M13,5.8c0,0.6-0.4,1.1-0.9,1.4c-0.8,0.5-1.6,1.1-2.4,1.6C9.5,9,8.9,9.5,8.5,9.5h0c-0.4,0-1-0.5-1.3-0.7
						C6.4,8.3,5.6,7.7,4.9,7.2C4.5,6.9,4,6.4,4,5.9C4,5.4,4.3,5,4.8,5h7.4C12.6,5,13,5.4,13,5.8z"/>
				</g>
			</g>
		</g>
	</g>
</g>
</svg>
