<?xml version="1.0" encoding="utf-8"?>
<!-- Generator: Adobe Illustrator 21.0.0, SVG Export Plug-In . SVG Version: 6.00 Build 0)  -->
<svg version="1.1" id="Layer_1" xmlns="http://www.w3.org/2000/svg" xmlns:xlink="http://www.w3.org/1999/xlink" x="0px" y="0px"
	 viewBox="0 0 18 18" style="enable-background:new 0 0 18 18;" xml:space="preserve">
<style type="text/css">
	.st0{fill:#CEC2C6;}
</style>
<title>number-info</title>
<desc>Created with Sketch.</desc>
<g id="_x32_Movers_x5F_Mobile">
	<g id="Number_Verification" transform="translate(-58.000000, -428.000000)">
		<g id="Group-5" transform="translate(58.000000, 427.000000)">
			<path id="number-info" class="st0" d="M11.4,15.2v-1.8c0-0.2-0.2-0.4-0.4-0.4H10V7.4C10,7.2,9.8,7,9.6,7H6.1
				C5.9,7,5.7,7.2,5.7,7.4v1.8c0,0.2,0.2,0.4,0.4,0.4h1.1v3.6H6.1c-0.2,0-0.4,0.2-0.4,0.4v1.8c0,0.2,0.2,0.4,0.4,0.4h5
				C11.3,15.6,11.4,15.4,11.4,15.2z M10,5.2V3.4c0-0.2-0.2-0.4-0.4-0.4H7.5c-0.2,0-0.4,0.2-0.4,0.4v1.8c0,0.2,0.2,0.4,0.4,0.4h2.1
				C9.8,5.6,10,5.4,10,5.2z M17.1,9.9c0,4.7-3.8,8.6-8.6,8.6S0,14.6,0,9.9s3.8-8.6,8.6-8.6S17.1,5.1,17.1,9.9z"/>
		</g>
	</g>
</g>
</svg>
